<?xml version="1.0" standalone="no"?>
<svg xmlns:xlink="http://www.w3.org/1999/xlink" id="wave" style="transform:rotate(180deg); transition: 0.3s" viewBox="0 0 1440 100" version="1.1" xmlns="http://www.w3.org/2000/svg"><defs><linearGradient id="sw-gradient-0" x1="0" x2="0" y1="1" y2="0"><stop stop-color="rgba(255, 249, 234, 1)" offset="0%"/><stop stop-color="rgba(255, 249, 234, 1)" offset="100%"/></linearGradient></defs><path style="transform:translate(0, 0px); opacity:1" fill="url(#sw-gradient-0)" d="M0,50L10.9,51.7C21.8,53,44,57,65,56.7C87.3,57,109,53,131,48.3C152.7,43,175,37,196,31.7C218.2,27,240,23,262,30C283.6,37,305,53,327,58.3C349.1,63,371,57,393,53.3C414.5,50,436,50,458,53.3C480,57,502,63,524,58.3C545.5,53,567,37,589,28.3C610.9,20,633,20,655,21.7C676.4,23,698,27,720,33.3C741.8,40,764,50,785,58.3C807.3,67,829,73,851,73.3C872.7,73,895,67,916,53.3C938.2,40,960,20,982,13.3C1003.6,7,1025,13,1047,21.7C1069.1,30,1091,40,1113,46.7C1134.5,53,1156,57,1178,48.3C1200,40,1222,20,1244,10C1265.5,0,1287,0,1309,15C1330.9,30,1353,60,1375,61.7C1396.4,63,1418,37,1440,21.7C1461.8,7,1484,3,1505,11.7C1527.3,20,1549,40,1560,50L1570.9,60L1570.9,100L1560,100C1549.1,100,1527,100,1505,100C1483.6,100,1462,100,1440,100C1418.2,100,1396,100,1375,100C1352.7,100,1331,100,1309,100C1287.3,100,1265,100,1244,100C1221.8,100,1200,100,1178,100C1156.4,100,1135,100,1113,100C1090.9,100,1069,100,1047,100C1025.5,100,1004,100,982,100C960,100,938,100,916,100C894.5,100,873,100,851,100C829.1,100,807,100,785,100C763.6,100,742,100,720,100C698.2,100,676,100,655,100C632.7,100,611,100,589,100C567.3,100,545,100,524,100C501.8,100,480,100,458,100C436.4,100,415,100,393,100C370.9,100,349,100,327,100C305.5,100,284,100,262,100C240,100,218,100,196,100C174.5,100,153,100,131,100C109.1,100,87,100,65,100C43.6,100,22,100,11,100L0,100Z"/></svg>